<?xml version="1.0" encoding="UTF-8"?>
<svg version="1.1" xmlns="http://www.w3.org/2000/svg" width="490" height="495">
<path d="M0 0 C161.7 0 323.4 0 490 0 C490 163.35 490 326.7 490 495 C328.3 495 166.6 495 0 495 C0 331.65 0 168.3 0 0 Z " fill="#FEFEFE" transform="translate(0,0)"/>
<path d="M0 0 C5.52019904 0.06549189 10.66589164 0.70795123 16.05934143 1.86126709 C16.87108322 2.02934875 17.68282501 2.19743042 18.51916504 2.37060547 C20.22173872 2.72593053 21.92336349 3.08583098 23.6240387 3.45013428 C26.20570632 4.00061723 28.79118455 4.52941032 31.37770081 5.05657959 C33.0426884 5.4068419 34.70741187 5.75836258 36.37184143 6.11126709 C37.13352127 6.26561218 37.89520111 6.41995728 38.67996216 6.57897949 C44.00088377 7.74240775 48.35574715 9.66003807 53.14918518 12.25189209 C53.14918518 15.22189209 53.14918518 18.19189209 53.14918518 21.25189209 C52.48918518 21.25189209 51.82918518 21.25189209 51.14918518 21.25189209 C50.97902893 22.57447021 50.97902893 22.57447021 50.80543518 23.92376709 C48.93837797 33.39241438 42.3150057 42.01976561 35.14918518 48.25189209 C29.45836232 51.75014684 23.49524409 53.71393303 16.92652893 54.79486084 C14.90890943 55.15301496 14.90890943 55.15301496 13.14918518 57.25189209 C14.67714437 80.81302279 28.15810411 107.95015304 41.14918518 127.25189209 C41.77695862 128.18904053 42.40473206 129.12618896 43.05152893 130.09173584 C44.71267841 132.5089446 46.41612347 134.88592304 48.14918518 137.25189209 C48.59262268 137.8770874 49.03606018 138.50228271 49.49293518 139.14642334 C64.71260652 160.16195789 84.52388132 180.57446041 107.41871643 193.09564209 C107.98977112 193.47720459 108.56082581 193.85876709 109.14918518 194.25189209 C109.14918518 194.91189209 109.14918518 195.57189209 109.14918518 196.25189209 C110.24480774 196.41564331 110.24480774 196.41564331 111.36256409 196.58270264 C114.32006019 197.29292664 116.19026856 198.31620902 118.73512268 199.95892334 C124.23507422 203.3711756 129.92470519 206.18056742 135.77418518 208.93939209 C136.75902893 209.4118335 137.74387268 209.8842749 138.75856018 210.37103271 C146.58635028 214.09184228 154.1931818 217.15401111 162.64918518 219.18939209 C164.05944554 219.53010729 165.46959894 219.87126547 166.87965393 220.21282959 C167.59041077 220.38395264 168.3011676 220.55507568 169.03346252 220.73138428 C171.05407984 221.22849438 173.06478779 221.75335456 175.07496643 222.29095459 C197.62586162 228.27500382 219.90640069 229.47225104 243.14918518 229.25189209 C242.58573909 234.15011675 241.05109334 238.14730783 238.83668518 242.50189209 C238.31642761 243.52983887 238.31642761 243.52983887 237.78565979 244.57855225 C231.69184148 256.27056358 224.35320517 267.45772982 215.24293518 277.01361084 C212.98117857 279.43149617 210.94281239 281.9602925 208.89918518 284.56439209 C206.16041383 288.03242208 203.36045822 291.20529972 200.14918518 294.25189209 C199.66320862 294.75849365 199.17723206 295.26509521 198.67652893 295.78704834 C193.55820328 301.09897496 187.8907926 305.63517102 182.14918518 310.25189209 C180.41980225 311.6891319 178.69063625 313.12663278 176.96168518 314.56439209 C166.061356 323.46451862 154.74558742 331.69630556 142.96559143 339.38861084 C140.35058921 340.98396293 140.35058921 340.98396293 139.14918518 342.25189209 C137.14527893 342.45501709 137.14527893 342.45501709 134.58668518 342.50189209 C133.76039612 342.52767334 132.93410706 342.55345459 132.08277893 342.58001709 C124.23886117 341.7026681 118.6068267 337.80175764 112.46168518 333.18939209 C111.28593933 332.32265869 111.28593933 332.32265869 110.08644104 331.43841553 C107.76520158 329.72101602 105.45524334 327.98960598 103.14918518 326.25189209 C102.51690002 325.77703369 101.88461487 325.30217529 101.23316956 324.81292725 C94.53371323 319.76597864 87.97379002 314.55360912 81.51246643 309.20501709 C80.14654034 308.07615255 78.77292665 306.95620106 77.37965393 305.86126709 C73.77099253 303.00480688 70.88531778 299.75763632 67.91871643 296.26751709 C66.31841015 294.44465166 64.66048743 292.79151187 62.89918518 291.12689209 C59.0559411 287.35212452 55.83563737 283.11870966 52.55299377 278.86322021 C48.74813156 273.95188806 44.76794109 269.22414699 40.64845276 264.57391357 C32.42634309 255.17534942 25.70387755 245.34228638 20.08668518 234.18939209 C19.7879248 233.60207306 19.48916443 233.01475403 19.18135071 232.40963745 C9.74048635 213.84473519 2.92044194 195.26196911 -2.85081482 175.25189209 C-3.13730896 174.26688721 -3.4238031 173.28188232 -3.71897888 172.26702881 C-7.43836935 159.39407348 -10.58979061 146.46346482 -12.85081482 133.25189209 C-13.02959167 132.30265869 -13.20836853 131.35342529 -13.39256287 130.37542725 C-15.3436175 118.83943652 -15.20358416 107.29540282 -15.16331482 95.62689209 C-15.161492 94.5375235 -15.15966919 93.44815491 -15.15779114 92.32577515 C-15.11025548 75.45742836 -14.52549209 58.93774397 -11.85081482 42.25189209 C-11.65793884 41.04226807 -11.46506287 39.83264404 -11.26634216 38.58636475 C-5.08232773 0.69169435 -5.08232773 0.69169435 0 0 Z " fill="#C1B7A7" transform="translate(118.85081481933594,56.74810791015625)"/>
<path d="M0 0 C3.08306956 4.00827598 3.81218301 8.20592562 4.53515625 13.08984375 C4.65934433 13.87081924 4.78353241 14.65179474 4.91148376 15.45643616 C5.30522107 17.94866846 5.68397652 20.44291671 6.0625 22.9375 C6.32000104 24.57892732 6.57845622 26.22020527 6.83789062 27.86132812 C7.46375163 31.84085661 8.07117266 35.82288245 8.66906738 39.80670166 C8.97565689 41.83866289 9.29068826 43.86934552 9.60644531 45.89990234 C10.70982419 53.19401771 11.39214458 60.37787055 11.625 67.75 C11.66222168 68.8107373 11.69944336 69.87147461 11.73779297 70.96435547 C12.12066534 82.97807874 12.16056437 94.98222911 12 107 C11.98912354 108.43327637 11.98912354 108.43327637 11.97802734 109.89550781 C11.6965661 137.24972456 8.84330307 177.80495878 -9.5065918 199.80639648 C-19.80126855 209.25619343 -42.2244837 206.60404876 -54.87304688 206.16845703 C-72.33468419 205.22775358 -88.73507806 198.97227603 -105 193 C-104.7216763 189.83852823 -104.00777672 189.00673153 -101.55859375 186.88671875 C-100.52863281 186.16097656 -99.49867188 185.43523437 -98.4375 184.6875 C-85.96920805 175.67956293 -74.80440373 164.85978476 -65 153 C-64.41347656 152.29101562 -63.82695312 151.58203125 -63.22265625 150.8515625 C-61.11634565 148.25851755 -59.05683822 145.63247212 -57 143 C-56.55495117 142.44344727 -56.10990234 141.88689453 -55.65136719 141.31347656 C-47.06783193 130.55350593 -40.32491906 119.21259699 -34 107 C-33.34 107 -32.68 107 -32 107 C-31.87399414 106.26370361 -31.74798828 105.52740723 -31.61816406 104.76879883 C-31.03560125 102.15946041 -30.25953678 100.10065842 -29.109375 97.69921875 C-28.73167969 96.89476318 -28.35398437 96.09030762 -27.96484375 95.26147461 C-27.56394531 94.41206299 -27.16304688 93.56265137 -26.75 92.6875 C-21.16615304 80.53709332 -16.3159381 68.55661683 -16 55 C-16.99 54.79246094 -17.98 54.58492187 -19 54.37109375 C-27.31748737 52.48765056 -33.18085676 50.55829538 -39 44 C-39.58910156 43.3915625 -40.17820312 42.783125 -40.78515625 42.15625 C-47.79166935 34.64157222 -55.85732359 24.41917314 -56.0625 13.75 C-54.93665549 10.83604949 -53.88008801 9.37146726 -51.16552734 7.79125977 C-48.34675136 6.76131016 -45.64321937 6.45151621 -42.6640625 6.08984375 C-33.93862399 4.92178725 -25.4477715 2.96182303 -16.88476562 0.94726562 C-4.976074 -1.73170113 -4.976074 -1.73170113 0 0 Z " fill="#C1B7A7" transform="translate(380,67)"/>
<path d="M0 0 C3.07403455 6.14806911 1.75092965 16.31793086 1 23 C-1.16651617 29.23716765 -5.31846767 32.88868468 -11 36 C-10.61805838 41.03976623 -7.93449214 43.72653982 -4.5625 47.1875 C-4.02117432 47.75557373 -3.47984863 48.32364746 -2.92211914 48.90893555 C-1.81513976 50.06592954 -0.7034077 51.21839544 0.41308594 52.36621094 C1.83279285 53.8278538 3.23408814 55.30732779 4.6328125 56.7890625 C13.28101465 65.77095734 23.01337958 72.21624845 33.8359375 78.23828125 C35.8063465 79.33538552 37.75567848 80.47243735 39.66796875 81.66796875 C41.84813026 82.91325364 43.49800786 83.5210813 45.9375 84 C52.22298053 85.23902696 56.38804383 87.90444039 60.3125 92.9375 C61.0859375 93.91847656 61.859375 94.89945312 62.65625 95.91015625 C64.90637541 98.87657158 67.11126029 101.87222192 69.3125 104.875 C73.15044046 110.05958624 77.34178644 114.73418867 81.76000977 119.41650391 C84.96230105 122.82438074 87.85114995 126.30715271 90.5859375 130.10546875 C95.11471982 136.17303622 100.30238197 141.44897798 106.07421875 146.32421875 C107.94362564 147.95094401 109.65593633 149.65402176 111.375 151.4375 C118.05137085 158.20450031 125.85590623 163.70548363 133.5546875 169.23828125 C134.76511719 170.11033203 134.76511719 170.11033203 136 171 C136.76570312 171.48855469 137.53140625 171.97710937 138.3203125 172.48046875 C138.87460938 172.98191406 139.42890625 173.48335937 140 174 C140 175.32 140 176.64 140 178 C135.71 178 131.42 178 127 178 C127 177.34 127 176.68 127 176 C126.27659424 176.03552979 125.55318848 176.07105957 124.80786133 176.10766602 C116.93041967 176.32477831 110.21761018 175.17410244 102.6875 172.9375 C101.59373047 172.62095459 100.49996094 172.30440918 99.37304688 171.97827148 C90.74413603 169.39892195 83.0016902 166.10252404 75 162 C72.8830175 161.00853389 70.75676762 160.03886347 68.62988281 159.06884766 C42.00520263 146.84758577 20.86637219 128.2432188 3 105 C2.08817969 103.95408846 1.1721974 102.91177344 0.25 101.875 C-2.08059926 98.89701206 -3.7947423 95.91011027 -5.56640625 92.58203125 C-7.17777708 89.67980749 -8.95731385 86.91875049 -10.75 84.125 C-18.51037391 71.55290087 -24.35043474 58.32579552 -28.37890625 44.12890625 C-29.7966741 39.26926172 -31.39440606 34.46275197 -32.94604492 29.64453125 C-37.56891841 15.11148019 -37.56891841 15.11148019 -37 8 C-33.42993019 4.42993019 -28.07236262 3.99919159 -23.27075195 2.8034668 C-21.33368612 2.31781172 -19.4021219 1.81038232 -17.47070312 1.30273438 C-16.23900391 0.99271484 -15.00730469 0.68269531 -13.73828125 0.36328125 C-12.61462158 0.07751221 -11.49096191 -0.20825684 -10.33325195 -0.50268555 C-6.60392398 -1.05909374 -3.67051974 -0.82983927 0 0 Z " fill="#C0B7A8" transform="translate(80,221)"/>
<path d="M0 0 C5.00730395 0.89175833 9.89865797 2.1287823 14.80810547 3.44873047 C15.83484375 3.71363281 16.86158203 3.97853516 17.91943359 4.25146484 C25.47654738 6.24852508 25.47654738 6.24852508 28.87060547 8.51123047 C29.53149877 15.89679695 27.13063375 22.47798595 24.99560547 29.44873047 C24.79763367 30.10552795 24.59966187 30.76232544 24.39569092 31.43902588 C20.69379582 43.67081084 16.06598173 55.38978507 10.91064453 67.08447266 C9.43906688 70.51815385 8.14513525 74.00010649 6.87060547 77.51123047 C6.21060547 77.51123047 5.55060547 77.51123047 4.87060547 77.51123047 C4.76361328 78.23697266 4.65662109 78.96271484 4.54638672 79.71044922 C2.61269838 87.72463732 -4.14481289 95.023321 -9.00439453 101.57373047 C-9.47337158 102.20964111 -9.94234863 102.84555176 -10.42553711 103.50073242 C-23.60591797 121.00707317 -41.3508789 141.37793692 -61.12939453 151.51123047 C-61.76925293 151.84574219 -62.40911133 152.18025391 -63.06835938 152.52490234 C-67.1144068 154.63453721 -71.19938068 156.64807024 -75.31298828 158.62207031 C-76.9044451 159.40111409 -78.47237429 160.22784736 -80.03564453 161.06201172 C-100.19081112 171.80564219 -124.14139008 178.97240957 -147.12939453 178.51123047 C-146.96533203 176.74169922 -146.96533203 176.74169922 -146.12939453 174.51123047 C-143.79345703 172.68701172 -143.79345703 172.68701172 -140.75439453 170.82373047 C-131.88232015 165.15107555 -124.02784879 158.42242473 -116.21923828 151.38232422 C-114.93487648 150.23240029 -113.63789831 149.09616563 -112.32080078 147.98388672 C-101.58309196 138.90879088 -91.56659956 128.75502643 -83.12939453 117.51123047 C-82.31986328 116.48384766 -81.51033203 115.45646484 -80.67626953 114.39794922 C-74.96499813 107.14535368 -69.50452902 99.73930883 -65.09423828 91.60107422 C-62.85234461 87.65107109 -60.4625335 86.78002148 -56.30297852 85.30615234 C-39.79869571 79.2702156 -24.61942832 68.72698987 -12.12939453 56.51123047 C-10.79908203 55.22152344 -10.79908203 55.22152344 -9.44189453 53.90576172 C-1.9827318 47.37529678 -1.9827318 47.37529678 2.39013672 38.93310547 C1.67865696 35.61643291 0.24709906 34.76832616 -2.44189453 32.76123047 C-7.21977317 28.69702867 -9.33045637 25.75669328 -10.12939453 19.51123047 C-10.35137933 16.55215155 -10.45674928 13.60300345 -10.50439453 10.63623047 C-10.51865479 9.88607666 -10.53291504 9.13592285 -10.54760742 8.36303711 C-10.49866661 3.02607193 -10.49866661 3.02607193 -8.88208008 0.7722168 C-5.95606334 -1.33293385 -3.42776407 -0.4589032 0 0 Z " fill="#C0B7A8" transform="translate(428.12939453125,220.48876953125)"/>
<path d="M0 0 C1.98 0 3.96 0 6 0 C7.54405734 5.07915789 8.64703688 10.09264208 9.5078125 15.328125 C9.63815887 16.11660828 9.76850525 16.90509155 9.90280151 17.71746826 C10.17580553 19.38448247 10.44627941 21.05191279 10.71435547 22.71972656 C11.11748139 25.20367249 11.54087987 27.68360172 11.96484375 30.1640625 C14.85067736 47.63371286 14.51861006 63.90634515 11.54638672 81.33911133 C11.11783327 83.85456611 10.71160394 86.37291573 10.30859375 88.89257812 C10.0429175 90.51843406 9.77603679 92.14409374 9.5078125 93.76953125 C9.3868924 94.51016312 9.26597229 95.25079498 9.14138794 96.01387024 C8.42938398 100.16226601 7.4410842 104.04536974 6 108 C4.35 108 2.7 108 1 108 C-1.12078281 103.41599818 -1.89262777 98.79135686 -2.7265625 93.8515625 C-2.87910492 92.96197845 -3.03164734 92.07239441 -3.18881226 91.15585327 C-3.50943132 89.27189456 -3.826958 87.38740731 -4.14160156 85.50244141 C-4.61790977 82.66720477 -5.11310547 79.83570716 -5.609375 77.00390625 C-8.64500664 59.27809201 -8.02676164 43.84255242 -5.06420898 26.17944336 C-4.55612433 23.14947868 -4.06477886 20.11714553 -3.57617188 17.08398438 C-3.26135955 15.15349184 -2.94563887 13.22314716 -2.62890625 11.29296875 C-2.48095108 10.38790085 -2.33299591 9.48283295 -2.18055725 8.55033875 C-2.04048752 7.7179921 -1.90041779 6.88564545 -1.75610352 6.02807617 C-1.57290306 4.93011971 -1.57290306 4.93011971 -1.38600159 3.8099823 C-1 2 -1 2 0 0 Z " fill="#C0B8AA" transform="translate(246,120)"/>
<path d="M0 0 C0.99 0 1.98 0 3 0 C5.6786251 10.71450039 0.114693 22.52558661 -3.00439453 32.80810547 C-3.4162655 34.17982051 -3.81935778 35.55420383 -4.21337891 36.93115234 C-7.26177398 47.56632618 -11.62936144 55.97756517 -18 65 C-19.00337838 66.49209545 -20.00503929 67.98534942 -21.00390625 69.48046875 C-23.22124393 72.71056097 -25.46341074 75.9234245 -27.70849609 79.13427734 C-28.92741741 80.89514629 -30.11730362 82.67222465 -31.30078125 84.45703125 C-32.32751953 85.96330078 -32.32751953 85.96330078 -33.375 87.5 C-33.96023438 88.3765625 -34.54546875 89.253125 -35.1484375 90.15625 C-37 92 -37 92 -39.61572266 92.11523438 C-40.79593994 92.05819336 -40.79593994 92.05819336 -42 92 C-41.53059223 85.05663835 -40.32148528 78.71674735 -38.3125 72.0625 C-38.0455835 71.16225098 -37.77866699 70.26200195 -37.50366211 69.33447266 C-36.94875765 67.4721957 -36.38958547 65.61118513 -35.82617188 63.75146484 C-35.03226987 61.10747089 -34.27093641 58.45601473 -33.515625 55.80078125 C-30.81430394 46.51430841 -27.70638677 38.91169344 -22 31 C-20.80288147 29.11022554 -19.61542199 27.21429916 -18.4375 25.3125 C-15.96228077 21.42050719 -13.36023724 17.70361448 -10.546875 14.05078125 C-8.09991363 10.80670367 -5.81693167 7.44986004 -3.515625 4.1015625 C-2 2 -2 2 0 0 Z " fill="#C0B8A9" transform="translate(299,136)"/>
<path d="M0 0 C2.76660156 -0.29516602 2.76660156 -0.29516602 6 0 C7.99121094 1.96508789 7.99121094 1.96508789 9.734375 4.72265625 C10.38639893 5.7295752 11.03842285 6.73649414 11.71020508 7.77392578 C12.3833374 8.85915527 13.05646973 9.94438477 13.75 11.0625 C15.16526685 13.26959392 16.58063135 15.47662523 17.99609375 17.68359375 C18.67913574 18.76495605 19.36217773 19.84631836 20.06591797 20.96044922 C22.94789498 25.48968601 25.96814997 29.92140253 28.99316406 34.35571289 C36.10008637 44.93482886 38.57199914 57.02191669 41.5612793 69.22338867 C42.75148657 74.07504155 44.06633173 78.87830133 45.484375 83.66796875 C46.03913922 86.17701601 46.09099934 88.4383685 46 91 C43.375 91.625 43.375 91.625 40 91 C38.60180664 89.10083008 38.60180664 89.10083008 37.22265625 86.58203125 C34.13542071 81.1688226 30.68151321 76.13071102 27.0625 71.0625 C24.6837236 67.724837 22.33125071 64.37102696 20 61 C19.08154297 59.70557983 19.08154297 59.70557983 18.14453125 58.38500977 C13.47216567 51.51061719 11.01459587 44.80867054 8.875 36.8125 C8.20691303 34.4280534 7.53764623 32.04393705 6.8671875 29.66015625 C6.55104492 28.51820801 6.23490234 27.37625977 5.90917969 26.19970703 C4.38098813 20.82149045 2.60140178 15.53046579 0.8125 10.234375 C-0.0721539 6.71277197 -0.14687226 3.61672932 0 0 Z " fill="#C0B8AA" transform="translate(195,137)"/>
<path d="M0 0 C0.33 0 0.66 0 1 0 C2.24030697 12.68418706 2.15935319 25.26861784 2 38 C1.99274902 38.97437012 1.98549805 39.94874023 1.97802734 40.95263672 C1.68945276 68.9345888 -2.06291797 102.6510321 -17 127 C-17.99 127.495 -17.99 127.495 -19 128 C-18.01 124.7 -17.02 121.4 -16 118 C-15.34 118 -14.68 118 -14 118 C-14.061875 117.154375 -14.12375 116.30875 -14.1875 115.4375 C-14.00379842 112.06963776 -13.16364552 110.05165128 -11.81323242 107.02368164 C-10.31499285 103.29539949 -9.46727852 99.40693108 -8.5625 95.5 C-8.35077148 94.59797852 -8.13904297 93.69595703 -7.92089844 92.76660156 C-3.90726011 75.23777332 -0.95920226 57.73770773 -0.68359375 39.74609375 C-0.66281265 38.60463394 -0.64203156 37.46317413 -0.62062073 36.28712463 C-0.55567136 32.67063941 -0.49649619 29.05408674 -0.4375 25.4375 C-0.39426275 22.97330055 -0.35064686 20.50910771 -0.30664062 18.04492188 C-0.2000466 12.03001749 -0.09818273 6.01504726 0 0 Z " fill="#BABBB9" transform="translate(390,136)"/>
<path d="M0 0 C0.598125 0.20625 1.19625 0.4125 1.8125 0.625 C-11.72311621 10.53610173 -34.65722273 9.53095265 -50.55810547 7.11230469 C-51.42580566 6.95149414 -52.29350586 6.79068359 -53.1875 6.625 C-53.1875 6.295 -53.1875 5.965 -53.1875 5.625 C-51.64594238 5.60312622 -51.64594238 5.60312622 -50.07324219 5.58081055 C-46.20377461 5.52215888 -42.33484907 5.44494063 -38.46582031 5.36254883 C-36.80184833 5.32961002 -35.13777294 5.30148513 -33.47363281 5.27856445 C-23.68564343 5.14016629 -7.79802223 -1.33680381 0 0 Z " fill="#BBBCBD" transform="translate(369.1875,265.375)"/>
<path d="M0 0 C0.33 0 0.66 0 1 0 C0.48490155 9.01422287 -0.63216712 17.84946772 -2.15673828 26.74316406 C-2.50658773 28.78851431 -2.84560321 30.83547239 -3.18359375 32.8828125 C-4.86766582 42.86766582 -4.86766582 42.86766582 -6 44 C-7.66617115 44.04063832 -9.33388095 44.042721 -11 44 C-9.68 43.34 -8.36 42.68 -7 42 C-7.07347656 40.49179688 -7.07347656 40.49179688 -7.1484375 38.953125 C-7.14573698 32.82295242 -6.00282599 26.82323212 -4.97363281 20.79882812 C-4.6237041 18.7423843 -4.28780615 16.68397408 -3.953125 14.625 C-3.73260328 13.3071521 -3.51127744 11.98943845 -3.2890625 10.671875 C-3.09006348 9.4869043 -2.89106445 8.30193359 -2.68603516 7.08105469 C-2.08546347 4.38382527 -1.37801641 2.37255932 0 0 Z " fill="#BEC0C1" transform="translate(258,184)"/>
<path d="M0 0 C0.99 0 1.98 0 3 0 C3 0.66 3 1.32 3 2 C1.36893277 3.38200296 -0.33464412 4.67860105 -2.0625 5.9375 C-2.59544678 6.3279248 -3.12839355 6.71834961 -3.67749023 7.12060547 C-4.83656593 7.96911623 -5.99754331 8.81503382 -7.16015625 9.65869141 C-9.03312827 11.02415163 -10.89271898 12.4062566 -12.75 13.79296875 C-19.98945823 19.18124979 -27.28744415 24.30191504 -35 29 C-35.33 28.34 -35.66 27.68 -36 27 C-35.67 26.34 -35.34 25.68 -35 25 C-33.68 25 -32.36 25 -31 25 C-31 24.34 -31 23.68 -31 23 C-30.34 23 -29.68 23 -29 23 C-29 22.34 -29 21.68 -29 21 C-27.2421875 19.59765625 -27.2421875 19.59765625 -24.875 18.0625 C-23.64136719 17.26199219 -23.64136719 17.26199219 -22.3828125 16.4453125 C-20 15 -20 15 -16.75 13.4375 C-13.51206793 11.7449446 -11.50975492 9.6384603 -9 7 C-6.25412869 4.64639602 -4.43729839 3.14576613 -1 2 C-0.67 1.34 -0.34 0.68 0 0 Z " fill="#B3B5B4" transform="translate(295,368)"/>
<path d="M0 0 C0.66 0.33 1.32 0.66 2 1 C0.77540356 8.24096442 -1.18447515 14.93917278 -3.75 21.8125 C-4.10126953 22.76721191 -4.45253906 23.72192383 -4.81445312 24.70556641 C-7.52929991 31.98170068 -10.53560058 39.04495571 -14 46 C-15.15957207 42.52128379 -14.77456651 41.65780355 -13.5625 38.3125 C-13.13130859 37.10013672 -13.13130859 37.10013672 -12.69140625 35.86328125 C-12.46324219 35.24839844 -12.23507812 34.63351562 -12 34 C-11.34 34 -10.68 34 -10 34 C-9.814375 32.4221875 -9.814375 32.4221875 -9.625 30.8125 C-9.07464792 27.45535232 -8.35122555 25.07779153 -7 22 C-4.87078778 16.76568663 -3.45957566 11.87250964 -2.52734375 6.296875 C-1.98828249 3.94896373 -1.1615332 2.10136297 0 0 Z " fill="#B5B6B5" transform="translate(451,246)"/>
<path d="M0 0 C0.33 0 0.66 0 1 0 C1.60316898 8.27583326 -0.55273753 14.91278889 -3.25 22.6875 C-3.64574219 23.88439453 -4.04148437 25.08128906 -4.44921875 26.31445312 C-6.40168869 32.06623754 -8.23057942 37.20176967 -12 42 C-13 40 -13 40 -12.44140625 38.0546875 C-12.15136719 37.33539063 -11.86132812 36.61609375 -11.5625 35.875 C-11.27503906 35.15054688 -10.98757813 34.42609375 -10.69140625 33.6796875 C-10.34916016 32.84824219 -10.34916016 32.84824219 -10 32 C-9.34 32 -8.68 32 -8 32 C-8.0928125 30.7315625 -8.0928125 30.7315625 -8.1875 29.4375 C-8.0044273 26.08116724 -7.18057067 24.07755849 -5.83081055 21.06225586 C-4.26683118 17.18011255 -3.33247685 13.1146739 -2.3125 9.0625 C-2.08755859 8.18787109 -1.86261719 7.31324219 -1.63085938 6.41210938 C-1.08223208 4.27596479 -0.53874036 2.13865534 0 0 Z " fill="#B5B5B3" transform="translate(384,222)"/>
<path d="M0 0 C0.66 0.33 1.32 0.66 2 1 C0.60770997 2.73202093 -0.78900556 4.46048484 -2.1875 6.1875 C-2.96480469 7.15042969 -3.74210937 8.11335938 -4.54296875 9.10546875 C-6.90841643 11.89210902 -9.38726911 14.44636157 -12 17 C-12.6084375 17.63164062 -13.216875 18.26328125 -13.84375 18.9140625 C-17.00649977 22.18124269 -19.90955435 24.89280073 -24 27 C-22.82744291 23.66272214 -21.81131596 21.22562513 -19 19 C-18.34 19 -17.68 19 -17 19 C-16.731875 18.38125 -16.46375 17.7625 -16.1875 17.125 C-15 15 -15 15 -12 13 C-11.67 12.01 -11.34 11.02 -11 10 C-10.01 9.67 -9.02 9.34 -8 9 C-7.67 8.01 -7.34 7.02 -7 6 C-6.34 6 -5.68 6 -5 6 C-4.67 5.01 -4.34 4.02 -4 3 C-1.9375 1.3125 -1.9375 1.3125 0 0 Z " fill="#B6B8B8" transform="translate(331,334)"/>
<path d="M0 0 C0.66 0 1.32 0 2 0 C2 2.97 2 5.94 2 9 C1.34 9 0.68 9 0 9 C-0.10957031 9.87785156 -0.21914062 10.75570312 -0.33203125 11.66015625 C-1.99504378 19.97521888 -7.31965603 26.91391718 -13 33 C-13.33 31.68 -13.66 30.36 -14 29 C-13.38125 28.773125 -12.7625 28.54625 -12.125 28.3125 C-9.32648473 26.58400528 -9.15998006 25.05031793 -8 22 C-7.01037237 20.09873169 -6.00970906 18.20318021 -5 16.3125 C-2.27052846 10.94010114 -0.76486398 5.96066409 0 0 Z " fill="#BABCBB" transform="translate(170,69)"/>
<path d="M0 0 C0.66 0.66 1.32 1.32 2 2 C-2.22190976 8.88290218 -6.71600151 15.53261426 -11.375 22.125 C-11.91092773 22.88353271 -12.44685547 23.64206543 -12.99902344 24.42358398 C-16.85820113 29.85820113 -16.85820113 29.85820113 -18 31 C-19.66617115 31.04063832 -21.33388095 31.042721 -23 31 C-23 29.02 -23 27.04 -23 25 C-22.34 26.32 -21.68 27.64 -21 29 C-17.7014861 28.27731765 -17.7014861 28.27731765 -16.3125 24.9375 C-15.879375 23.968125 -15.44625 22.99875 -15 22 C-14.34 22 -13.68 22 -13 22 C-12.67 20.35 -12.34 18.7 -12 17 C-11.34 17 -10.68 17 -10 17 C-9.731875 16.28457031 -9.46375 15.56914062 -9.1875 14.83203125 C-7.98268693 11.95871061 -6.58762888 9.36662374 -5 6.6875 C-4.484375 5.80449219 -3.96875 4.92148438 -3.4375 4.01171875 C-2.963125 3.34785156 -2.48875 2.68398437 -2 2 C-1.34 2 -0.68 2 0 2 C0 1.34 0 0.68 0 0 Z " fill="#BABBBA" transform="translate(280,197)"/>
<path d="M0 0 C0.99 0.33 1.98 0.66 3 1 C-1.20316778 8.17382772 -5.9918315 14.79687152 -11.0625 21.375 C-11.6517627 22.14763184 -12.24102539 22.92026367 -12.84814453 23.71630859 C-16.23929496 28.06716501 -19.6138966 31.64866985 -24 35 C-22.68822142 32.0737247 -21.24710766 30.24710766 -19 28 C-17.82425289 25.90010348 -17.82425289 25.90010348 -17 24 C-16.34 24 -15.68 24 -15 24 C-15 23.01 -15 22.02 -15 21 C-14.34 21 -13.68 21 -13 21 C-12.731875 20.030625 -12.46375 19.06125 -12.1875 18.0625 C-11.5996875 16.5465625 -11.5996875 16.5465625 -11 15 C-10.01 14.67 -9.02 14.34 -8 14 C-6.96708324 12.01679982 -5.9662501 10.01652194 -5 8 C-4.34 7.67 -3.68 7.34 -3 7 C-2.34786708 4.97536745 -2.34786708 4.97536745 -2 3 C-1.34 3 -0.68 3 0 3 C0 2.01 0 1.02 0 0 Z " fill="#B4B6B6" transform="translate(427,305)"/>
<path d="M0 0 C1.2065625 0.0309375 1.2065625 0.0309375 2.4375 0.0625 C-1.14568229 3.00254701 -5.06303807 5.00412367 -9.1875 7.0625 C-9.89519531 7.41699219 -10.60289062 7.77148438 -11.33203125 8.13671875 C-16.59538982 10.71566858 -21.83611807 12.74102725 -27.5625 14.0625 C-27.5625 13.0725 -27.5625 12.0825 -27.5625 11.0625 C-26.20705078 10.64677734 -26.20705078 10.64677734 -24.82421875 10.22265625 C-23.64472656 9.86042969 -22.46523438 9.49820312 -21.25 9.125 C-20.07824219 8.76535156 -18.90648437 8.40570313 -17.69921875 8.03515625 C-15.64696023 7.39877721 -13.60089863 6.74196621 -11.5625 6.0625 C-11.2325 5.0725 -10.9025 4.0825 -10.5625 3.0625 C-8.25220915 2.31990651 -5.916748 1.651062 -3.5625 1.0625 C-2.5625 0.0625 -2.5625 0.0625 0 0 Z " fill="#B3B3B3" transform="translate(356.5625,374.9375)"/>
<path d="M0 0 C0.66 0 1.32 0 2 0 C1.36658758 4.78785268 -0.58936585 8.62522327 -2.75 12.875 C-3.08515625 13.55691406 -3.4203125 14.23882812 -3.765625 14.94140625 C-6.12625741 19.6358457 -8.85603829 23.7897296 -12 28 C-12.33 27.34 -12.66 26.68 -13 26 C-12.505 24.515 -12.505 24.515 -12 23 C-11.34 23 -10.68 23 -10 23 C-9.731875 22.3090625 -9.46375 21.618125 -9.1875 20.90625 C-7.42212967 16.58573839 -5.41301168 12.38384499 -3.4375 8.15625 C-2.21022801 5.46158758 -1.07092419 2.75968927 0 0 Z " fill="#B2B3B4" transform="translate(360,287)"/>
<path d="M0 0 C0.33 0 0.66 0 1 0 C3.15729044 10.72866761 3.2071352 21.10238692 3 32 C2.67 32 2.34 32 2 32 C0.52682142 21.25368837 -0.28435784 10.85299084 0 0 Z " fill="#C9CACB" transform="translate(257,152)"/>
<path d="M0 0 C0.33 0 0.66 0 1 0 C1.25516956 5.33097492 0.44452479 9.69835511 -1.3125 14.6875 C-1.52583984 15.33783203 -1.73917969 15.98816406 -1.95898438 16.65820312 C-3.17225806 20.21110308 -4.40282935 23.24964502 -7 26 C-7.66 26 -8.32 26 -9 26 C-7.125 21.25 -7.125 21.25 -6 19 C-5.34 19 -4.68 19 -4 19 C-3.23192239 14.72071048 -2.73585513 10.47739203 -2.37890625 6.1484375 C-1.96509943 3.80211015 -1.15716894 2.07072337 0 0 Z " fill="#B3B5B5" transform="translate(293,167)"/>
<path d="M0 0 C2.97 0 5.94 0 9 0 C9 0.66 9 1.32 9 2 C9.97066406 1.80535156 10.94132813 1.61070312 11.94140625 1.41015625 C16.46071741 0.76454037 20.5006592 1.54404877 24.9375 2.4375 C26.10635742 2.65889648 26.10635742 2.65889648 27.29882812 2.88476562 C29.20113916 3.24655484 31.10086709 3.62188242 33 4 C33 4.33 33 4.66 33 5 C28.71 5 24.42 5 20 5 C20 4.34 20 3.68 20 3 C18.83984375 3.03480469 18.83984375 3.03480469 17.65625 3.0703125 C11.36674562 3.17928906 6.01659801 2.85126093 0 1 C0 0.67 0 0.34 0 0 Z " fill="#C7C9C8" transform="translate(187,394)"/>
<path d="M0 0 C0.99 0.33 1.98 0.66 3 1 C-1.05230726 6.95857014 -5.2036661 12.61874733 -10 18 C-10.640625 16.16015625 -10.640625 16.16015625 -11 14 C-8.75 11.4375 -8.75 11.4375 -6 9 C-3.27423678 6.57709936 -2.2607679 4.42208429 -1 1 C-0.67 0.67 -0.34 0.34 0 0 Z " fill="#B6B9B9" transform="translate(344,316)"/>
<path d="M0 0 C0 0.66 0 1.32 0 2 C-10.29222084 7.04030254 -10.29222084 7.04030254 -15.9375 8 C-19.4194042 8.63647711 -19.91314462 8.9110262 -22.5625 11.625 C-23.036875 12.40875 -23.51125 13.1925 -24 14 C-24.3125 11.6875 -24.3125 11.6875 -24 9 C-19.6410784 5.80028159 -15.13152118 4.95675454 -9.9375 3.84375 C-6.45348962 2.84302361 -3.54953811 0 0 0 Z " fill="#B3B4B2" transform="translate(154,103)"/>
<path d="M0 0 C0.99 0.33 1.98 0.66 3 1 C3.42765417 7.41481258 1.85743168 12.88595404 0 19 C-0.33 19 -0.66 19 -1 19 C-1.12086218 12.56744599 -0.82351864 6.38226945 0 0 Z " fill="#BEBFBE" transform="translate(454,228)"/>
<path d="M0 0 C0.99 0.33 1.98 0.66 3 1 C0.03352255 4.19249477 -3.04963636 6.4592987 -6.75 8.75 C-7.73484375 9.36359375 -8.7196875 9.9771875 -9.734375 10.609375 C-10.48203125 11.06828125 -11.2296875 11.5271875 -12 12 C-12.33 11.34 -12.66 10.68 -13 10 C-12.67 9.34 -12.34 8.68 -12 8 C-10.68 8 -9.36 8 -8 8 C-8 7.34 -8 6.68 -8 6 C-7.34 6 -6.68 6 -6 6 C-6 5.34 -6 4.68 -6 4 C-3.1875 1.8125 -3.1875 1.8125 0 0 Z " fill="#BABAB9" transform="translate(272,385)"/>
<path d="M0 0 C0.33 0 0.66 0 1 0 C1.5073957 3.20720862 2.004579 6.41592163 2.5 9.625 C2.64308594 10.52863281 2.78617187 11.43226562 2.93359375 12.36328125 C3.63734167 16.95439866 4.18584778 21.33831815 4 26 C0.9707103 22.9707103 0.85750243 20.21255726 0.68359375 16.11328125 C0.64169922 15.17548828 0.59980469 14.23769531 0.55664062 13.27148438 C0.51732422 12.29501953 0.47800781 11.31855469 0.4375 10.3125 C0.39431641 9.32443359 0.35113281 8.33636719 0.30664062 7.31835938 C0.20058346 4.87904454 0.09852286 2.43962887 0 0 Z " fill="#C6C7C8" transform="translate(386,97)"/>
<path d="M0 0 C1.87912645 0.23916155 3.75815975 0.47907755 5.63671875 0.72265625 C7.21922141 0.90837144 8.80583135 1.06178479 10.39453125 1.18359375 C17.7840704 1.7840704 17.7840704 1.7840704 21 5 C15.76884607 5.21544006 11.56214697 4.52370193 6.5625 3 C5.32628906 2.62875 4.09007812 2.2575 2.81640625 1.875 C1.88699219 1.58625 0.95757812 1.2975 0 1 C0 0.67 0 0.34 0 0 Z " fill="#BDBDBB" transform="translate(295,266)"/>
<path d="M0 0 C0.33 0 0.66 0 1 0 C1.42496538 4.43852727 0.42534646 6.34386431 -2.375 9.75 C-3.31472656 10.91789062 -3.31472656 10.91789062 -4.2734375 12.109375 C-6 14 -6 14 -8 15 C-7.67 13.35 -7.34 11.7 -7 10 C-6.01 9.67 -5.02 9.34 -4 9 C-2.87914688 6.6569191 -2.87914688 6.6569191 -2 4 C-1.34786461 2.65949948 -0.68620031 1.32338632 0 0 Z " fill="#B8B8B8" transform="translate(164,87)"/>
<path d="M0 0 C0.66 0 1.32 0 2 0 C1.69723124 6.05537521 -1.27754038 9.51483458 -5 14 C-5.66 13.67 -6.32 13.34 -7 13 C-7 12.34 -7 11.68 -7 11 C-6.01 11 -5.02 11 -4 11 C-4 10.01 -4 9.02 -4 8 C-3.34 8 -2.68 8 -2 8 C-2.061875 6.8553125 -2.061875 6.8553125 -2.125 5.6875 C-2 3 -2 3 0 0 Z " fill="#BABBBB" transform="translate(79,240)"/>
<path d="M0 0 C0.66 0.33 1.32 0.66 2 1 C1.27275406 6.52706913 -0.33445973 11.69960141 -2 17 C-2.33 17 -2.66 17 -3 17 C-3.40214229 10.83381819 -1.96818336 5.82254243 0 0 Z " fill="#BDBFBF" transform="translate(300,144)"/>
<path d="M0 0 C4.00010667 6.00016001 4.31474226 13.91829912 4 21 C3.67 19.68 3.34 18.36 3 17 C2.34 17 1.68 17 1 17 C0.67 11.39 0.34 5.78 0 0 Z " fill="#BBBCBB" transform="translate(381,69)"/>
<path d="M0 0 C-2.1234016 0.83739781 -4.2487728 1.66980283 -6.375 2.5 C-7.55835938 2.9640625 -8.74171875 3.428125 -9.9609375 3.90625 C-13 5 -13 5 -15 5 C-15 4.01 -15 3.02 -15 2 C-13.25364835 1.46706165 -11.50272348 0.94909337 -9.75 0.4375 C-8.77546875 0.14746094 -7.8009375 -0.14257812 -6.796875 -0.44140625 C-4.03756068 -0.99249836 -2.6087176 -0.93789609 0 0 Z " fill="#B7BABA" transform="translate(344,384)"/>
<path d="M0 0 C1.8871875 0.0309375 1.8871875 0.0309375 3.8125 0.0625 C0.95771674 1.96568884 -0.60691308 2.5244099 -3.875 3.1875 C-4.68324219 3.35507812 -5.49148438 3.52265625 -6.32421875 3.6953125 C-6.93910156 3.81648438 -7.55398438 3.93765625 -8.1875 4.0625 C-7.8575 3.0725 -7.5275 2.0825 -7.1875 1.0625 C-4.43671116 0.14557039 -2.82801087 -0.04636083 0 0 Z " fill="#C0C2C2" transform="translate(325.1875,388.9375)"/>
<path d="M0 0 C0.33 0 0.66 0 1 0 C1.09765625 6.15234375 1.09765625 6.15234375 1 8 C0 9 0 9 -2.5625 9.0625 C-3.366875 9.041875 -4.17125 9.02125 -5 9 C-4.0409375 8.7215625 -4.0409375 8.7215625 -3.0625 8.4375 C-0.57873787 7.05753944 -0.57873787 7.05753944 -0.25 3.375 C-0.1675 2.26125 -0.085 1.1475 0 0 Z " fill="#B7BABA" transform="translate(252,219)"/>
<path d="M0 0 C0.66 0 1.32 0 2 0 C1.5359375 0.7734375 1.5359375 0.7734375 1.0625 1.5625 C-0.29059287 4.66665423 -0.61359424 7.65115007 -1 11 C-3 8 -3 8 -2.75 4.9375 C-2 2 -2 2 0 0 Z " fill="#CECAC1" transform="translate(327,76)"/>
<path d="M0 0 C0.66 0 1.32 0 2 0 C2 2.97 2 5.94 2 9 C1.01 9 0.02 9 -1 9 C-0.67 6.03 -0.34 3.06 0 0 Z " fill="#C2C3C4" transform="translate(170,69)"/>
<path d="M0 0 C1.32 0.33 2.64 0.66 4 1 C1.36 2.98 -1.28 4.96 -4 7 C-2 3 -2 3 0 0 Z " fill="#B6B8B9" transform="translate(303,361)"/>
<path d="M0 0 C0.66 0.33 1.32 0.66 2 1 C-0.31 3.31 -2.62 5.62 -5 8 C-5 5 -5 5 -2.5 2.3125 C-1.675 1.549375 -0.85 0.78625 0 0 Z " fill="#B2B4B3" transform="translate(390,351)"/>
<path d="M0 0 C1.80330533 3.60661066 2.46599103 6.08393425 3 10 C2.01 9.67 1.02 9.34 0 9 C0 6.03 0 3.06 0 0 Z " fill="#BFBFBF" transform="translate(229,182)"/>
</svg>
